<svg xmlns="http://www.w3.org/2000/svg" width="48.827" height="81.549" viewBox="0 0 48.827 81.549">
  <g id="Grupo_4341" data-name="Grupo 4341" transform="translate(-1002.163 -178.201)">
    <path id="Trazado_725" data-name="Trazado 725" d="M1014.363,204.316a16.275,16.275,0,0,0,3.111.466l1.306.029c.128,2.484.182,4.6.332,6.663a29.133,29.133,0,0,0,.4,3.2c-1.986-.055-4.016-.13-4.674-.209h-.021c-.107-1.5-.13-2.827-.209-3.741S1014.516,207.314,1014.363,204.316Z" fill="#7ccc6c" fill-rule="evenodd"/>
    <path id="Trazado_726" data-name="Trazado 726" d="M1010.483,185.809a3.163,3.163,0,0,1,.819-.108c2.937-.017,6.078,4.864,6.833,11.3.16,1.364.283,2.623.377,3.8a21.893,21.893,0,0,1-4.45-.727c-.633-6.528-2.2-13.124-6.389-10.9a9.573,9.573,0,0,1,.976-1.78A4.07,4.07,0,0,1,1010.483,185.809Z" fill="#7ccc6c" fill-rule="evenodd"/>
    <path id="Trazado_727" data-name="Trazado 727" d="M1010.142,185.92l-.056.022.044-.018.012,0a2.241,2.241,0,0,1,.273-.092Z" fill="#8ebe74" fill-rule="evenodd"/>
    <path id="Trazado_728" data-name="Trazado 728" d="M1042.947,220.2a3.757,3.757,0,0,1-.5.135,4.084,4.084,0,0,1-.523.071A5.034,5.034,0,0,0,1042.947,220.2Z" fill="#8ebe74" fill-rule="evenodd"/>
    <path id="Trazado_729" data-name="Trazado 729" d="M1034.848,205.1a19.19,19.19,0,0,1,2.19.181,18.2,18.2,0,0,1,2.075.41c.476,6.607,1.852,13.449,6.088,11.233a4.266,4.266,0,0,1-3.3,3.482,2.509,2.509,0,0,1-.39-.025c-2.911-.39-5.511-4.8-6.267-11.238C1035.075,207.689,1034.946,206.348,1034.848,205.1Z" fill="#7ccc6c" fill-rule="evenodd"/>
    <path id="Trazado_730" data-name="Trazado 730" d="M1033.728,190.773c.349.015,1.034.038,1.78.065,1.4.05,3,.11,3,.11.154,1.772.171,3.423.262,4.473.075.872.054,3.175.137,5.98l-.056-.013c-1.124-.177-3.528-.258-4.123-.287v0l-.143-.005c-.119-2.38-.174-4.428-.319-6.419A27.287,27.287,0,0,0,1033.728,190.773Z" fill="#7ccc6c" fill-rule="evenodd"/>
    <path id="Trazado_731" data-name="Trazado 731" d="M1002.32,204.174a15.946,15.946,0,0,0,4.374,7.952c-1.123-3.663-.227-7.725-1.313-9.553-1.407-2.37-2.992-2.43-2.992-2.43a10.583,10.583,0,0,0-.069,4.031" fill="#7ccc6c" fill-rule="evenodd"/>
    <path id="Trazado_732" data-name="Trazado 732" d="M1050.839,201.253a15.945,15.945,0,0,0-4.373-7.952c1.122,3.662.226,7.725,1.313,9.555,1.407,2.367,2.991,2.428,2.991,2.428a10.561,10.561,0,0,0,.069-4.031" fill="#7ccc6c" fill-rule="evenodd"/>
    <path id="Trazado_733" data-name="Trazado 733" d="M1015.512,218.912c1.591.12,3.326.139,4.754.145.3,1.979,3.012,3.294,3.123,3.332a12.291,12.291,0,0,0,8.6-.394,1.5,1.5,0,0,0,.434-.32,5.457,5.457,0,0,1,.112,4.6l-.01.015a16.837,16.837,0,0,1-13.259-1.245,9.269,9.269,0,0,1-3.757-6.134Z" fill="#7ccc6c" fill-rule="evenodd"/>
    <path id="Trazado_734" data-name="Trazado 734" d="M1020.625,179.144l.007-.008h0c1.68-.866,8.938-2.043,13.258,1.245a9.505,9.505,0,0,1,3.28,4.291c.036.1.467,1.587.622,2.126,0,0-3.574-.125-5.009-.227a5.387,5.387,0,0,0-3.012-3.533c-3.4-1.114-7.375-.473-8.6.393a3.687,3.687,0,0,0-.624.558l-.127-.164-.113-.169-.1-.171-.086-.174-.071-.14-.066-.216-.039-.155-.053-.21-.023-.162-.029-.2-.008-.167-.008-.2.006-.168.008-.192.02-.166.022-.186.03-.162.034-.175.039-.156.042-.165.046-.146.048-.154.05-.135.052-.139.053-.121.054-.125.053-.1.053-.109.05-.085.051-.089.045-.067Z" fill="#7ccc6c" fill-rule="evenodd"/>
    <path id="Trazado_735" data-name="Trazado 735" d="M1041.9,220.409h.019l-.032,0Z" fill="#18431d" fill-rule="evenodd"/>
    <path id="Trazado_736" data-name="Trazado 736" d="M1010.483,185.809l-.067.019.1-.033Z" fill="#18431d" fill-rule="evenodd"/>
    <path id="Trazado_737" data-name="Trazado 737" d="M1007.664,189.126c.011-.046.015-.062.014-.056s-.009.033-.019.073Zm6.651,15.177c-4.077-.983-9.638-3.6-9.532-8.984.129-6.568,3.292-8.631,5.3-9.377l.044-.018.285-.1.068-.019a4.07,4.07,0,0,0-1.834,1.585,9.573,9.573,0,0,0-.976,1.78l-.008.021a5.98,5.98,0,0,0-.52,2.763c.153,1.705.338,6.257,6.917,8.112l.058.017a21.75,21.75,0,0,0,4.392.71l.169.014c.829.054,1.716.032,2.667.052,7.612.171,10.159.132,13.241.229l.143.005v0c.595.029,3,.11,4.123.287l.056.013.038.006a11.689,11.689,0,0,1,7.719,5.493c2.539,4.054.514,11.893-3.7,13.294l-.025.009a3.872,3.872,0,0,1-1.025.206h-.019a4.263,4.263,0,0,0,3.3-3.482l.006-.031a10.972,10.972,0,0,0-.586-5.547,8.778,8.778,0,0,0-5.192-5.576l-.316-.079-.064-.017a18.68,18.68,0,0,0-2.011-.393,19.19,19.19,0,0,0-2.19-.181l-.206-.007v0c-1.864-.029-11.638-.181-15.862-.281l-1.306-.029a16.275,16.275,0,0,1-3.111-.466Z" fill="#025f1d" fill-rule="evenodd"/>
    <path id="Trazado_738" data-name="Trazado 738" d="M1006.6,212.057l.106.1c-.1-.1-.2-.189-.293-.285.062.06.125.121.187.183" fill="#67579e" fill-rule="evenodd"/>
    <path id="Trazado_739" data-name="Trazado 739" d="M1002.384,204.543c.013.075.028.149.044.227s.032.152.05.229c-.033-.152-.064-.3-.094-.456" fill="#67579e" fill-rule="evenodd"/>
    <path id="Trazado_740" data-name="Trazado 740" d="M1032.581,226.218l.033-.044-.026.036Z" fill="#18431d" fill-rule="evenodd"/>
    <path id="Trazado_741" data-name="Trazado 741" d="M1020.232,219.055c-1.421,0-3.142-.023-4.72-.143l-.016,0c-.684-.05-1.342-.121-1.937-.217-4.174-.681-6.479-1.3-8.808-5.289a22.576,22.576,0,0,1-2.467-9.365l.036.135.092.342a15.731,15.731,0,0,0,4.282,7.61l.027.025c2.246,2.072,7.714,2.3,8.1,2.317h.021c.658.079,2.688.154,4.674.209l.171.006c1.767.048,3.465.083,4.089.091,2.362.032,12.5.125,13.133,5.041.555,4.338-3.782,6.38-4.322,6.468l-.055.008.005-.008.005-.007a5.457,5.457,0,0,0-.112-4.6l0-.009a3.633,3.633,0,0,0-.781-1.005l-.02-.017c-.1-.092-.207-.179-.322-.269-1.145-.874-4.473-1.207-8.06-1.293l-1.547-.02Z" fill="#025f1d" fill-rule="evenodd"/>
    <path id="Trazado_742" data-name="Trazado 742" d="M1039.12,190.971s-8.474-.319-9.733-.319c-2.362,0-12.5-.125-13.133-5.043-.554-4.335,3.744-6.207,4.317-6.45l.061-.023-.011.014-.044.065-.042.062-.006.009-.048.085-.047.081-.006.011-.05.1-.05.1-.006.01-.051.119-.05.114-.005.013-.05.133-.048.129-.005.013-.045.147-.045.14,0,.012-.04.159-.038.15,0,.012-.032.169-.029.158,0,.01-.021.18-.019.162v.008l-.008.188-.007.164v.008l.009.194.007.162v.009l.029.2.022.16v.006l.053.206.038.152v.005l.059.183.077.171.086.174.1.173.113.167c.04.056.082.11.127.164l0,.005a3.293,3.293,0,0,0,.324.337l.556.454a6.89,6.89,0,0,0,.622.439c1.633.945,4.321,1.179,7.739,1.237,0,0,9.157.35,9.642.385,3.107.227,6.65,1.189,8.979,5.176a22.6,22.6,0,0,1,2.467,9.366l-.037-.135-.091-.342a15.739,15.739,0,0,0-4.282-7.61l-.027-.025C1044.188,191.2,1041.533,191.092,1039.12,190.971Z" fill="#025f1d" fill-rule="evenodd"/>
    <path id="Trazado_743" data-name="Trazado 743" d="M1020.6,179.173l.012-.014Z" fill="#18431d" fill-rule="evenodd"/>
    <path id="Trazado_744" data-name="Trazado 744" d="M1020.383,183.775l.033.05Z" fill="#18431d" fill-rule="evenodd"/>
    <path id="Trazado_745" data-name="Trazado 745" d="M1020.267,183.6l.036.06Z" fill="#18431d" fill-rule="evenodd"/>
    <path id="Trazado_746" data-name="Trazado 746" d="M1020.17,183.417l.034.068Z" fill="#18431d" fill-rule="evenodd"/>
    <path id="Trazado_747" data-name="Trazado 747" d="M1020.064,183.171l.054.14h0Z" fill="#18431d" fill-rule="evenodd"/>
    <path id="Trazado_748" data-name="Trazado 748" d="M1019.942,182.8l.039.154v0Z" fill="#18431d" fill-rule="evenodd"/>
    <path id="Trazado_749" data-name="Trazado 749" d="M1019.866,182.428l.023.162v0Z" fill="#18431d" fill-rule="evenodd"/>
    <path id="Trazado_750" data-name="Trazado 750" d="M1019.829,182.057l.008.167v0Z" fill="#18431d" fill-rule="evenodd"/>
    <path id="Trazado_751" data-name="Trazado 751" d="M1019.827,181.691l-.007.169v0Z" fill="#18431d" fill-rule="evenodd"/>
    <path id="Trazado_752" data-name="Trazado 752" d="M1019.855,181.333l-.02.167v0Z" fill="#18431d" fill-rule="evenodd"/>
    <path id="Trazado_753" data-name="Trazado 753" d="M1019.907,180.985l-.03.162v0Z" fill="#18431d" fill-rule="evenodd"/>
    <path id="Trazado_754" data-name="Trazado 754" d="M1019.98,180.654l-.039.156V180.8Z" fill="#18431d" fill-rule="evenodd"/>
    <path id="Trazado_755" data-name="Trazado 755" d="M1020.068,180.343l-.046.146,0-.006Z" fill="#18431d" fill-rule="evenodd"/>
    <path id="Trazado_756" data-name="Trazado 756" d="M1020.166,180.054l-.051.135,0-.006Z" fill="#18431d" fill-rule="evenodd"/>
    <path id="Trazado_757" data-name="Trazado 757" d="M1020.271,179.794l-.053.121,0-.006Z" fill="#18431d" fill-rule="evenodd"/>
    <path id="Trazado_758" data-name="Trazado 758" d="M1020.378,179.565l-.053.1,0,0Z" fill="#18431d" fill-rule="evenodd"/>
    <path id="Trazado_759" data-name="Trazado 759" d="M1020.481,179.371l-.05.085,0,0Z" fill="#18431d" fill-rule="evenodd"/>
    <path id="Trazado_760" data-name="Trazado 760" d="M1020.577,179.215l-.045.067,0,0Z" fill="#18431d" fill-rule="evenodd"/>
    <path id="Trazado_761" data-name="Trazado 761" d="M1020.628,179.142l0,0Z" fill="#18431d" fill-rule="evenodd"/>
    <path id="Trazado_762" data-name="Trazado 762" d="M1020.626,179.144l.005-.008h0Z" fill="#18431d" fill-rule="evenodd"/>
    <path id="Trazado_763" data-name="Trazado 763" d="M1003.646,254.148a2.705,2.705,0,0,1,.689.078,2.437,2.437,0,0,1,.535.2l-.2.65a2.889,2.889,0,0,0-.5-.194,1.76,1.76,0,0,0-.472-.068.8.8,0,0,0-.474.122.409.409,0,0,0-.023.644,1.738,1.738,0,0,0,.472.21l.382.121a1.741,1.741,0,0,1,.749.452,1.023,1.023,0,0,1,.271.72,1.193,1.193,0,0,1-.1.477,1.05,1.05,0,0,1-.287.389,1.359,1.359,0,0,1-.478.261,2.11,2.11,0,0,1-.669.1,2.973,2.973,0,0,1-1.318-.291l.2-.652a3.232,3.232,0,0,0,.535.208,2.059,2.059,0,0,0,.548.073.861.861,0,0,0,.51-.125.4.4,0,0,0,.172-.345.4.4,0,0,0-.029-.15.374.374,0,0,0-.1-.142,1.129,1.129,0,0,0-.207-.133,2.21,2.21,0,0,0-.341-.131l-.337-.115a2.542,2.542,0,0,1-.408-.177,1.359,1.359,0,0,1-.316-.237.932.932,0,0,1-.2-.315,1.119,1.119,0,0,1-.074-.424,1.2,1.2,0,0,1,.1-.481,1.038,1.038,0,0,1,.283-.379,1.374,1.374,0,0,1,.465-.248A2.056,2.056,0,0,1,1003.646,254.148Z" fill="#025f1d"/>
    <path id="Trazado_764" data-name="Trazado 764" d="M1006.074,254.544a.451.451,0,0,1-.338-.125.426.426,0,0,1-.121-.308.431.431,0,0,1,.121-.31.52.52,0,0,1,.672,0,.45.45,0,0,1,0,.618A.451.451,0,0,1,1006.074,254.544Zm-.427,3.69v-3.04h.847v3.04Z" fill="#025f1d"/>
    <path id="Trazado_765" data-name="Trazado 765" d="M1009.043,255.92a1.708,1.708,0,0,0-.726-.179.585.585,0,0,0-.316.071.215.215,0,0,0-.111.192.235.235,0,0,0,.1.2,1.325,1.325,0,0,0,.4.167l.191.058a1.286,1.286,0,0,1,.6.331.783.783,0,0,1,.2.56.863.863,0,0,1-.348.721,1.507,1.507,0,0,1-.939.266,2.28,2.28,0,0,1-1.039-.216l.191-.625a2.028,2.028,0,0,0,.389.156,1.393,1.393,0,0,0,.414.061.674.674,0,0,0,.373-.079.241.241,0,0,0,.118-.206.237.237,0,0,0-.115-.209,1.875,1.875,0,0,0-.433-.162l-.2-.056a1.219,1.219,0,0,1-.56-.34.917.917,0,0,1,.133-1.234,1.319,1.319,0,0,1,.873-.263,2.319,2.319,0,0,1,.981.2Z" fill="#025f1d"/>
    <path id="Trazado_766" data-name="Trazado 766" d="M1011.668,255.806h-.809v1.4a.363.363,0,0,0,.1.3.4.4,0,0,0,.264.079,1.388,1.388,0,0,0,.261-.025.792.792,0,0,0,.217-.069l.127.592a1.81,1.81,0,0,1-.325.1,2.047,2.047,0,0,1-.458.052,1.146,1.146,0,0,1-.79-.221.855.855,0,0,1-.236-.66v-1.547h-.472v-.612h.472v-.937h.841v.937h.809Z" fill="#025f1d"/>
    <path id="Trazado_767" data-name="Trazado 767" d="M1014,256.354a.913.913,0,0,0-.029-.236.583.583,0,0,0-.092-.2.481.481,0,0,0-.159-.135.487.487,0,0,0-.236-.052.56.56,0,0,0-.421.173.762.762,0,0,0-.2.464Zm.866.578h-2.019v.027a.618.618,0,0,0,.255.542,1.125,1.125,0,0,0,.656.177,1.821,1.821,0,0,0,.449-.05,2.479,2.479,0,0,0,.354-.121l.153.591a2,2,0,0,1-.434.144,2.674,2.674,0,0,1-.618.06,2.251,2.251,0,0,1-.646-.091,1.506,1.506,0,0,1-.529-.283,1.358,1.358,0,0,1-.36-.486,1.673,1.673,0,0,1-.134-.7,1.911,1.911,0,0,1,.108-.66,1.43,1.43,0,0,1,.309-.506,1.407,1.407,0,0,1,.481-.329,1.59,1.59,0,0,1,.625-.119,1.313,1.313,0,0,1,.984.377,1.445,1.445,0,0,1,.366,1.052Z" fill="#025f1d"/>
    <path id="Trazado_768" data-name="Trazado 768" d="M1016.185,258.234h-.847v-3.04H1016l.1.389a1.6,1.6,0,0,1,.446-.331,1.212,1.212,0,0,1,.549-.123.9.9,0,0,1,.885.473,1.485,1.485,0,0,1,.465-.348,1.29,1.29,0,0,1,.561-.125.994.994,0,0,1,.742.263,1.032,1.032,0,0,1,.258.757v2.085h-.847v-1.989a.515.515,0,0,0-.1-.341.378.378,0,0,0-.309-.123.817.817,0,0,0-.347.081.892.892,0,0,0-.3.237v2.135h-.848v-1.989a.515.515,0,0,0-.105-.341.378.378,0,0,0-.309-.123.725.725,0,0,0-.347.092.935.935,0,0,0-.3.251Z" fill="#025f1d"/>
    <path id="Trazado_769" data-name="Trazado 769" d="M1022.308,256.9l-.274.006a.962.962,0,0,0-.541.132.348.348,0,0,0-.153.283.317.317,0,0,0,.131.3.54.54,0,0,0,.3.082.592.592,0,0,0,.315-.1.718.718,0,0,0,.226-.223Zm-1.6-1.439a2.429,2.429,0,0,1,.58-.245,2.319,2.319,0,0,1,.649-.088,1.864,1.864,0,0,1,.5.065,1.022,1.022,0,0,1,.388.2.871.871,0,0,1,.249.352,1.367,1.367,0,0,1,.086.512v1.976h-.656l-.077-.313h-.025a.989.989,0,0,1-.373.279,1.253,1.253,0,0,1-.526.1,1.2,1.2,0,0,1-.439-.072.971.971,0,0,1-.325-.2.791.791,0,0,1-.2-.3,1,1,0,0,1-.067-.371.856.856,0,0,1,.112-.447.9.9,0,0,1,.309-.31,1.452,1.452,0,0,1,.461-.177,2.586,2.586,0,0,1,.571-.059h.382v-.185a.361.361,0,0,0-.131-.308.588.588,0,0,0-.366-.1,1.381,1.381,0,0,0-.379.056,2.243,2.243,0,0,0-.43.185Z" fill="#025f1d"/>
    <path id="Trazado_770" data-name="Trazado 770" d="M1027.049,255.991a.661.661,0,0,0-.217-.173.607.607,0,0,0-.293-.07.781.781,0,0,0-.29.052.615.615,0,0,0-.242.162.806.806,0,0,0-.169.292,1.369,1.369,0,0,0-.064.443,1.48,1.48,0,0,0,.058.439.933.933,0,0,0,.153.306.591.591,0,0,0,.226.18.7.7,0,0,0,.277.056.586.586,0,0,0,.347-.1.662.662,0,0,0,.214-.233Zm0-2.307h.847v4.55h-.6l-.089-.333h-.032a1.036,1.036,0,0,1-.328.281,1.127,1.127,0,0,1-.558.12,1.312,1.312,0,0,1-.535-.108,1.22,1.22,0,0,1-.433-.312,1.462,1.462,0,0,1-.29-.5,1.977,1.977,0,0,1-.1-.67,2.1,2.1,0,0,1,.095-.656,1.436,1.436,0,0,1,.274-.5,1.207,1.207,0,0,1,.44-.318,1.5,1.5,0,0,1,.6-.113,1.329,1.329,0,0,1,.411.065.851.851,0,0,1,.309.166Z" fill="#025f1d"/>
    <path id="Trazado_771" data-name="Trazado 771" d="M1030.387,256.354a.957.957,0,0,0-.028-.236.569.569,0,0,0-.093-.2.462.462,0,0,0-.159-.135.485.485,0,0,0-.236-.052.556.556,0,0,0-.42.173.757.757,0,0,0-.2.464Zm.867.578h-2.02v.027a.617.617,0,0,0,.255.542,1.127,1.127,0,0,0,.656.177,1.822,1.822,0,0,0,.449-.05,2.436,2.436,0,0,0,.354-.121l.153.591a1.989,1.989,0,0,1-.433.144,2.679,2.679,0,0,1-.618.06,2.259,2.259,0,0,1-.647-.091,1.506,1.506,0,0,1-.529-.283,1.358,1.358,0,0,1-.36-.486,1.673,1.673,0,0,1-.134-.7,1.911,1.911,0,0,1,.109-.66,1.415,1.415,0,0,1,.309-.506,1.388,1.388,0,0,1,.481-.329,1.588,1.588,0,0,1,.624-.119,1.313,1.313,0,0,1,.984.377,1.441,1.441,0,0,1,.367,1.052Z" fill="#025f1d"/>
    <rect id="Rect치ngulo_2179" data-name="Rect치ngulo 2179" width="0.835" height="4.549" transform="translate(1033.089 253.685)" fill="#025f1d"/>
    <path id="Trazado_772" data-name="Trazado 772" d="M1035.083,254.544a.451.451,0,0,1-.338-.125.427.427,0,0,1-.121-.308.431.431,0,0,1,.121-.31.522.522,0,0,1,.673,0,.451.451,0,0,1,0,.618A.45.45,0,0,1,1035.083,254.544Zm-.427,3.69v-3.04h.848v3.04Z" fill="#025f1d"/>
    <path id="Trazado_773" data-name="Trazado 773" d="M1038.033,255.806h-.809v1.4a.363.363,0,0,0,.1.3.4.4,0,0,0,.264.079,1.388,1.388,0,0,0,.261-.025.791.791,0,0,0,.217-.069l.127.592a1.809,1.809,0,0,1-.325.1,2.046,2.046,0,0,1-.458.052,1.146,1.146,0,0,1-.79-.221.856.856,0,0,1-.236-.66v-1.547h-.472v-.612h.472v-.937h.841v.937h.809Z" fill="#025f1d"/>
    <path id="Trazado_774" data-name="Trazado 774" d="M1039.021,254.544a.448.448,0,0,1-.338-.125.423.423,0,0,1-.121-.308.427.427,0,0,1,.121-.31.52.52,0,0,1,.672,0,.451.451,0,0,1,0,.618A.448.448,0,0,1,1039.021,254.544Zm-.427,3.69v-3.04h.847v3.04Z" fill="#025f1d"/>
    <path id="Trazado_775" data-name="Trazado 775" d="M1041.9,256.22a.5.5,0,0,0-.133-.377.517.517,0,0,0-.679,0,.5.5,0,0,0-.131.371.5.5,0,0,0,.134.381.517.517,0,0,0,.679,0A.5.5,0,0,0,1041.9,256.22Zm-.962,2.116a.475.475,0,0,0-.159.133.335.335,0,0,0-.064.21.372.372,0,0,0,.169.308,1.009,1.009,0,0,0,.583.125,1.052,1.052,0,0,0,.6-.139.4.4,0,0,0,.192-.319.267.267,0,0,0-.121-.25.8.8,0,0,0-.376-.068Zm-.815-2.11a1.026,1.026,0,0,1,.1-.453,1.011,1.011,0,0,1,.273-.346,1.258,1.258,0,0,1,.415-.221,1.742,1.742,0,0,1,.525-.077,1.844,1.844,0,0,1,.236.017,1.449,1.449,0,0,1,.236.048h1.3v.535h-.274l-.4-.056a.847.847,0,0,1,.137.254.914.914,0,0,1,.054.306.978.978,0,0,1-.348.781,1.432,1.432,0,0,1-.952.295,1.366,1.366,0,0,1-.28-.025.218.218,0,0,0-.16.211.177.177,0,0,0,.071.152.445.445,0,0,0,.248.052h.682a1.348,1.348,0,0,1,.806.218.814.814,0,0,1,.3.7.9.9,0,0,1-.118.456,1.094,1.094,0,0,1-.334.356,1.668,1.668,0,0,1-.522.233,2.578,2.578,0,0,1-.682.084,2.106,2.106,0,0,1-1.1-.246.777.777,0,0,1-.405-.7.534.534,0,0,1,.14-.366.934.934,0,0,1,.389-.246.83.83,0,0,1-.179-.181.48.48,0,0,1-.089-.3.548.548,0,0,1,.128-.364.908.908,0,0,1,.325-.242.929.929,0,0,1-.188-.131.981.981,0,0,1-.169-.187.943.943,0,0,1-.124-.248A.966.966,0,0,1,1040.123,256.226Z" fill="#025f1d"/>
    <path id="Trazado_776" data-name="Trazado 776" d="M1044.137,254.544a.45.45,0,0,1-.338-.125.423.423,0,0,1-.121-.308.427.427,0,0,1,.121-.31.52.52,0,0,1,.672,0,.451.451,0,0,1,0,.618A.447.447,0,0,1,1044.137,254.544Zm-.427,3.69v-3.04h.847v3.04Z" fill="#025f1d"/>
    <path id="Trazado_777" data-name="Trazado 777" d="M1047.354,256.722a1.531,1.531,0,0,0-.057-.446.866.866,0,0,0-.153-.3.616.616,0,0,0-.223-.169.678.678,0,0,0-.516-.006.559.559,0,0,0-.217.16.822.822,0,0,0-.152.3,1.565,1.565,0,0,0-.058.464,1.407,1.407,0,0,0,.058.431.812.812,0,0,0,.156.3.666.666,0,0,0,.223.173.624.624,0,0,0,.258.056.668.668,0,0,0,.255-.048.526.526,0,0,0,.216-.163.828.828,0,0,0,.153-.3A1.523,1.523,0,0,0,1047.354,256.722Zm.873-.031a1.767,1.767,0,0,1-.121.674,1.473,1.473,0,0,1-.334.508,1.493,1.493,0,0,1-.5.319,1.716,1.716,0,0,1-.618.11,1.779,1.779,0,0,1-.614-.1,1.332,1.332,0,0,1-.491-.3,1.388,1.388,0,0,1-.325-.488,1.735,1.735,0,0,1-.118-.658,1.861,1.861,0,0,1,.121-.691,1.447,1.447,0,0,1,.335-.51,1.469,1.469,0,0,1,.5-.317,1.783,1.783,0,0,1,.618-.108,1.853,1.853,0,0,1,.615.1,1.407,1.407,0,0,1,.491.3,1.326,1.326,0,0,1,.324.487A1.8,1.8,0,0,1,1048.227,256.691Z" fill="#025f1d"/>
    <path id="Trazado_778" data-name="Trazado 778" d="M1050.54,255.92a1.708,1.708,0,0,0-.726-.179.585.585,0,0,0-.316.071.215.215,0,0,0-.111.192.235.235,0,0,0,.1.2,1.326,1.326,0,0,0,.4.167l.191.058a1.286,1.286,0,0,1,.6.331.782.782,0,0,1,.2.56.865.865,0,0,1-.347.721,1.512,1.512,0,0,1-.94.266,2.28,2.28,0,0,1-1.039-.216l.191-.625a2.024,2.024,0,0,0,.389.156,1.394,1.394,0,0,0,.414.061.674.674,0,0,0,.373-.079.241.241,0,0,0,.118-.206.235.235,0,0,0-.115-.209,1.875,1.875,0,0,0-.433-.162l-.2-.056a1.219,1.219,0,0,1-.56-.34.917.917,0,0,1,.133-1.234,1.319,1.319,0,0,1,.873-.263,2.326,2.326,0,0,1,.982.2Z" fill="#025f1d"/>
    <path id="Trazado_779" data-name="Trazado 779" d="M1009.332,232.448a12.692,12.692,0,0,1,3.42.4h0a2.6,2.6,0,0,1,1.786,3.271c-.176.577-.316,1.033-.316,1.033a13.23,13.23,0,0,0-2.355-.943,8.031,8.031,0,0,0-2.265-.346,3.609,3.609,0,0,0-2.1.51,1.577,1.577,0,0,0-.719,1.349,1.526,1.526,0,0,0,.689,1.4,10.24,10.24,0,0,0,2.13.914l1.77.571a10.759,10.759,0,0,1,1.95.885,6.806,6.806,0,0,1,1.545,1.214,5.193,5.193,0,0,1,1.005,1.561,4.907,4.907,0,0,1,.359,1.889,5.759,5.759,0,0,1-.45,2.265,5.152,5.152,0,0,1-1.364,1.874,6.558,6.558,0,0,1-2.31,1.277,10.472,10.472,0,0,1-3.285.464,14.784,14.784,0,0,1-3.374-.375h0a2.938,2.938,0,0,1-2.14-3.721l.206-.674a16.2,16.2,0,0,0,2.52.991,9.173,9.173,0,0,0,2.579.36,3.9,3.9,0,0,0,2.295-.527,1.68,1.68,0,0,0,.705-1.424,1.6,1.6,0,0,0-.12-.6,1.635,1.635,0,0,0-.465-.6,4.068,4.068,0,0,0-.96-.585,13.021,13.021,0,0,0-1.575-.585l-1.469-.511a15.766,15.766,0,0,1-1.95-.87,6.227,6.227,0,0,1-1.545-1.139,4.762,4.762,0,0,1-1.005-1.53,5.4,5.4,0,0,1-.36-2.07,5.567,5.567,0,0,1,.465-2.28,4.969,4.969,0,0,1,1.38-1.814,6.738,6.738,0,0,1,2.25-1.2A9.946,9.946,0,0,1,1009.332,232.448Z" fill="#025f1d"/>
    <path id="Trazado_780" data-name="Trazado 780" d="M1021.061,236.973a2.257,2.257,0,0,1-1.74-.646,2.188,2.188,0,0,1-.6-1.545,2.162,2.162,0,0,1,.615-1.545,2.274,2.274,0,0,1,1.725-.645,2.3,2.3,0,0,1,1.725.631,2.143,2.143,0,0,1,.615,1.559,2.172,2.172,0,0,1-.6,1.56A2.291,2.291,0,0,1,1021.061,236.973Zm-2.22,14.731V238.128h4.44V251.7Z" fill="#025f1d"/>
    <path id="Trazado_781" data-name="Trazado 781" d="M1048.644,236.973a2.255,2.255,0,0,1-1.739-.646,2.187,2.187,0,0,1-.6-1.545,2.162,2.162,0,0,1,.615-1.545,2.271,2.271,0,0,1,1.724-.645,2.3,2.3,0,0,1,1.725.631,2.143,2.143,0,0,1,.615,1.559,2.171,2.171,0,0,1-.6,1.56A2.291,2.291,0,0,1,1048.644,236.973Zm-2.219,14.731V238.128h4.439V251.7Z" fill="#025f1d"/>
    <path id="Trazado_782" data-name="Trazado 782" d="M1035.369,240.995a8.913,8.913,0,0,0-1.71-.614,7.159,7.159,0,0,0-1.739-.225,2.549,2.549,0,0,0-1.26.271.827.827,0,0,0-.48.749,1.028,1.028,0,0,0,.465.854,6.341,6.341,0,0,0,1.844.735l.9.271a5.832,5.832,0,0,1,2.73,1.574,3.825,3.825,0,0,1,.93,2.655,4.269,4.269,0,0,1-.45,1.965,4.38,4.38,0,0,1-1.275,1.514,5.854,5.854,0,0,1-1.98.96,9.271,9.271,0,0,1-2.564.331,12.167,12.167,0,0,1-2.715-.271h0a2.189,2.189,0,0,1-1.612-2.763l.367-1.226a10.612,10.612,0,0,0,1.815.735,6.7,6.7,0,0,0,1.935.285,2.879,2.879,0,0,0,1.605-.331.936.936,0,0,0,.359-1.243,1.09,1.09,0,0,0-.374-.375,3.244,3.244,0,0,0-.765-.345q-.5-.167-1.275-.406l-.93-.269a5.311,5.311,0,0,1-2.58-1.576,4.38,4.38,0,0,1,.7-5.968,5.312,5.312,0,0,1,1.8-.96,7.9,7.9,0,0,1,2.445-.345,12.254,12.254,0,0,1,2.564.254h0a2.1,2.1,0,0,1,1.573,2.646C1035.52,240.483,1035.369,240.995,1035.369,240.995Z" fill="#025f1d"/>
    <rect id="Rect치ngulo_2180" data-name="Rect치ngulo 2180" width="4.379" height="21.448" transform="translate(1039.299 230.256)" fill="#025f1d"/>
  </g>
</svg>
