<svg id="person-circle" xmlns="http://www.w3.org/2000/svg" width="33.716" height="33.716" viewBox="0 0 33.716 33.716">
  <path id="Trazado_6198" data-name="Trazado 6198" d="M17.644,9.322A6.322,6.322,0,1,1,11.322,3a6.322,6.322,0,0,1,6.322,6.322Z" transform="translate(5.536 3.322)" fill="#707070"/>
  <path id="Trazado_6199" data-name="Trazado 6199" d="M0,16.858A16.858,16.858,0,1,1,16.858,33.716,16.858,16.858,0,0,1,0,16.858ZM16.858,2.107A14.751,14.751,0,0,0,5.336,26.067c1.5-2.411,4.79-4.994,11.523-4.994s10.024,2.581,11.523,4.994A14.751,14.751,0,0,0,16.858,2.107Z" fill="#707070" fill-rule="evenodd"/>
</svg>
