<?xml version="1.0" encoding="UTF-8"?><svg id="Capa_2" xmlns="http://www.w3.org/2000/svg" viewBox="0 0 34.01 45.34"><defs><style>.cls-1{fill:#fff;}.cls-2{fill:#d8d8d8;}</style></defs><g id="Capa_1-2"><g id="Grupo_4715"><path id="file-earmark-check-fill" class="cls-1" d="m20.67,0H5.67C2.54,0,0,2.54,0,5.67v34.01c0,3.13,2.54,5.67,5.67,5.67h22.67c3.13,0,5.67-2.54,5.67-5.67V13.34c0-.75-.3-1.47-.83-2L22.67.83c-.53-.53-1.25-.83-2-.83h0Zm.59,9.92v-5.67l8.5,8.5h-5.67c-1.57,0-2.83-1.27-2.83-2.83h0Z"/><path id="Trazado_6290" class="cls-2" d="m17.06,35.02v-.23c0-1.85-1.5-3.34-3.34-3.34H5.36c-1.85,0-3.34,1.5-3.34,3.35v.23c-.84.29-.84.82-.84,1.44,0,.92.75,1.67,1.67,1.67h13.38c.92,0,1.67-.75,1.67-1.67,0-.62,0-1.15-.84-1.44Z"/><path id="Trazado_6291" class="cls-2" d="m26.26,18.9h-13.38v-1.67c.91-.03,1.64-.76,1.67-1.67v-.84c0-.92-.75-1.67-1.67-1.67h-6.69c-.92,0-1.67.75-1.67,1.67v.84c.03.91.76,1.64,1.67,1.67v6.69c-.91.03-1.64.76-1.67,1.67v.84c0,.92.75,1.67,1.67,1.67h6.69c.92,0,1.67-.75,1.67-1.67v-.84c-.03-.91-.76-1.64-1.67-1.67v-1.67h13.38c.92,0,1.67-.75,1.67-1.67,0-.92-.75-1.67-1.67-1.67h0Z"/></g></g></svg>