<svg id="Layer_2" data-name="Layer 2" xmlns="http://www.w3.org/2000/svg" width="30" height="30" viewBox="0 0 30 30">
  <g id="person-done">
    <rect id="Rectángulo_3137" data-name="Rectángulo 3137" width="30" height="30" fill="#fff" opacity="0"/>
    <path id="Trazado_6280" data-name="Trazado 6280" d="M23.1,4.313a1.255,1.255,0,0,0-1.769.113l-2.346,2.7-.79-.891A1.258,1.258,0,0,0,16.314,7.9l1.744,1.957a1.249,1.249,0,0,0,1.869-.013L23.2,6.082a1.255,1.255,0,0,0-.1-1.769Z" transform="translate(4.073 1.019)" fill="#fff"/>
    <path id="Trazado_6281" data-name="Trazado 6281" d="M11.018,13.037A5.018,5.018,0,1,0,6,8.018a5.018,5.018,0,0,0,5.018,5.018Z" transform="translate(1.527 0.764)" fill="#fff"/>
    <path id="Trazado_6282" data-name="Trazado 6282" d="M19.31,23.037a1.255,1.255,0,0,0,1.255-1.255A8.782,8.782,0,1,0,3,21.782a1.255,1.255,0,0,0,1.255,1.255" transform="translate(0.764 3.31)" fill="#fff"/>
  </g>
</svg>
