<svg xmlns="http://www.w3.org/2000/svg" width="34.006" height="45.341" viewBox="0 0 34.006 45.341">
  <g id="Grupo_4717" data-name="Grupo 4717" transform="translate(13316.224 2710.763)">
    <path id="file-earmark-check-fill" d="M22.667,0h-15A5.668,5.668,0,0,0,2,5.668V39.673a5.668,5.668,0,0,0,5.668,5.668h22.67a5.668,5.668,0,0,0,5.668-5.668V13.339a2.833,2.833,0,0,0-.83-2L24.67.83a2.834,2.834,0,0,0-2-.83Zm.587,9.918V4.251l8.5,8.5H26.087a2.834,2.834,0,0,1-2.834-2.834Z" transform="translate(-13318.224 -2710.763)" fill="#fff"/>
    <g id="checklist-checkmark-done-svgrepo-com" transform="translate(-13310.299 -2693.424)">
      <path id="Trazado_6274" data-name="Trazado 6274" d="M7.544,12.276,5.01,15.441l-1.7-1.7a.771.771,0,0,0-1.091,1.091l2.3,2.3a.768.768,0,0,0,.545.223h.046a.768.768,0,0,0,.553-.292l3.072-3.84a.768.768,0,1,0-1.2-.952Z" transform="translate(-1.995 -4.253)" fill="#d8d8d8"/>
      <path id="Trazado_6275" data-name="Trazado 6275" d="M7.544,2.276,5.01,5.441l-1.7-1.7A.771.771,0,0,0,2.222,4.834l2.3,2.3a.768.768,0,0,0,.545.223h.046a.768.768,0,0,0,.553-.292l3.072-3.84a.768.768,0,1,0-1.2-.952Z" transform="translate(-1.995 -1.934)" fill="#d8d8d8"/>
      <path id="Trazado_6276" data-name="Trazado 6276" d="M13.768,6.536H25.289a.768.768,0,0,0,0-1.536H13.768a.768.768,0,1,0,0,1.536Z" transform="translate(-4.547 -2.645)" fill="#d8d8d8"/>
      <path id="Trazado_6277" data-name="Trazado 6277" d="M25.289,15H13.768a.768.768,0,1,0,0,1.536H25.289a.768.768,0,0,0,0-1.536Z" transform="translate(-4.547 -4.964)" fill="#d8d8d8"/>
      <path id="Trazado_6278" data-name="Trazado 6278" d="M25.289,25H13.768a.768.768,0,1,0,0,1.536H25.289a.768.768,0,0,0,0-1.536Z" transform="translate(-4.547 -7.284)" fill="#d8d8d8"/>
      <path id="Trazado_6279" data-name="Trazado 6279" d="M7.92,21.221a.768.768,0,0,0-1.091,0L5.071,22.988,3.312,21.221a.771.771,0,1,0-1.091,1.091l1.766,1.759L2.221,25.83A.771.771,0,1,0,3.312,26.92l1.759-1.766L6.83,26.92A.771.771,0,1,0,7.92,25.83L6.154,24.071,7.92,22.312a.768.768,0,0,0,0-1.091Z" transform="translate(-1.994 -6.355)" fill="#d8d8d8"/>
    </g>
  </g>
</svg>
