<svg xmlns="http://www.w3.org/2000/svg" width="50.653" height="37.994" viewBox="0 0 50.653 37.994">
  <path id="list-check" d="M15.473,36.372a1.809,1.809,0,0,1,1.809-1.809H49.843a1.809,1.809,0,1,1,0,3.618H17.282A1.809,1.809,0,0,1,15.473,36.372Zm0-14.472a1.809,1.809,0,0,1,1.809-1.809H49.843a1.809,1.809,0,1,1,0,3.618H17.282A1.809,1.809,0,0,1,15.473,21.9Zm0-14.472A1.809,1.809,0,0,1,17.282,5.62H49.843a1.809,1.809,0,1,1,0,3.618H17.282A1.809,1.809,0,0,1,15.473,7.429Zm-4.146-4.9a1.809,1.809,0,0,1,0,2.561L5.9,10.519a1.809,1.809,0,0,1-2.561,0L1.53,8.71A1.811,1.811,0,0,1,4.091,6.148l.528.532,4.146-4.15a1.809,1.809,0,0,1,2.561,0Zm0,14.472a1.809,1.809,0,0,1,0,2.561L5.9,24.991a1.809,1.809,0,0,1-2.561,0L1.53,23.182A1.811,1.811,0,1,1,4.091,20.62l.528.532L8.766,17a1.809,1.809,0,0,1,2.561,0Zm0,14.472a1.809,1.809,0,0,1,0,2.561L5.9,39.462a1.809,1.809,0,0,1-2.561,0L1.53,37.653a1.811,1.811,0,1,1,2.561-2.561l.528.532,4.146-4.15a1.809,1.809,0,0,1,2.561,0Z" transform="translate(-0.999 -1.999)" fill="#676767" fill-rule="evenodd"/>
</svg>
