<svg xmlns="http://www.w3.org/2000/svg" width="34.006" height="45.341" viewBox="0 0 34.006 45.341">
  <g id="Grupo_4718" data-name="Grupo 4718" transform="translate(13098.829 2739.097)">
    <path id="file-earmark-check-fill" d="M22.667,0h-15A5.668,5.668,0,0,0,2,5.668V39.673a5.668,5.668,0,0,0,5.668,5.668h22.67a5.668,5.668,0,0,0,5.668-5.668V13.339a2.833,2.833,0,0,0-.83-2L24.67.83a2.834,2.834,0,0,0-2-.83Zm.587,9.918V4.251l8.5,8.5H26.087a2.834,2.834,0,0,1-2.834-2.834Z" transform="translate(-13100.829 -2739.097)" fill="#fff"/>
    <g id="document-svgrepo-com_1_" data-name="document-svgrepo-com (1)" transform="translate(-13091.994 -2721.526)">
      <g id="Grupo_4710" data-name="Grupo 4710" transform="translate(0 0)">
        <g id="Grupo_4709" data-name="Grupo 4709" transform="translate(0 0)">
          <g id="Grupo_4708" data-name="Grupo 4708">
            <path id="Trazado_6292" data-name="Trazado 6292" d="M69.226,80.092H87.67a.88.88,0,1,0,0-1.76H69.226a.88.88,0,0,0,0,1.76Z" transform="translate(-68.346 -73.751)" fill="#d8d8d8"/>
            <path id="Trazado_6293" data-name="Trazado 6293" d="M69.226,42.768H87.67a.88.88,0,1,0,0-1.76H69.226a.88.88,0,0,0,0,1.76Z" transform="translate(-68.346 -41.008)" fill="#d8d8d8"/>
            <path id="Trazado_6295" data-name="Trazado 6295" d="M69.226,117.415H87.67a.88.88,0,1,0,0-1.76H69.226a.88.88,0,0,0,0,1.76Z" transform="translate(-68.346 -106.493)" fill="#d8d8d8"/>
          </g>
        </g>
      </g>
      <g id="Grupo_4712" data-name="Grupo 4712" transform="translate(11.767 16.643)">
        <g id="Grupo_4711" data-name="Grupo 4711" transform="translate(0 0)">
          <path id="Trazado_6296" data-name="Trazado 6296" d="M167.983,176.608a3.766,3.766,0,1,0,3.766,3.766A3.77,3.77,0,0,0,167.983,176.608Zm0,5.793a2.028,2.028,0,1,1,2.028-2.028A2.03,2.03,0,0,1,167.983,182.4Z" transform="translate(-164.217 -176.608)" fill="#d8d8d8"/>
        </g>
      </g>
    </g>
  </g>
</svg>
