<svg xmlns="http://www.w3.org/2000/svg" width="34.006" height="45.341" viewBox="0 0 34.006 45.341">
  <g id="Grupo_4719" data-name="Grupo 4719" transform="translate(13710.794 3676.021)">
    <path id="file-earmark-check-fill" d="M22.667,0h-15A5.668,5.668,0,0,0,2,5.668V39.673a5.668,5.668,0,0,0,5.668,5.668h22.67a5.668,5.668,0,0,0,5.668-5.668V13.339a2.833,2.833,0,0,0-.83-2L24.67.83a2.834,2.834,0,0,0-2-.83Zm.587,9.918V4.251l8.5,8.5H26.087a2.834,2.834,0,0,1-2.834-2.834Z" transform="translate(-13712.794 -3676.021)" fill="#fff"/>
    <path id="check-lg" d="M17.872,4.086a1.12,1.12,0,0,1,1.6,0,1.154,1.154,0,0,1,.015,1.6L10.454,16.368a1.12,1.12,0,0,1-1.627.031l-5.5-5.57a1.156,1.156,0,0,1,0-1.619,1.12,1.12,0,0,1,1.6,0l4.662,4.725L17.842,4.12a.377.377,0,0,1,.031-.034Z" transform="translate(-13703.973 -3660.683)" fill="#d8d8d8"/>
  </g>
</svg>
