<svg xmlns="http://www.w3.org/2000/svg" width="15.114" height="18.602" viewBox="0 0 15.114 18.602">
  <path id="files" d="M14.789,0H6.65A2.325,2.325,0,0,0,4.325,2.325,2.325,2.325,0,0,0,2,4.65V16.277A2.325,2.325,0,0,0,4.325,18.6h8.138a2.325,2.325,0,0,0,2.325-2.325,2.325,2.325,0,0,0,2.325-2.325V2.325A2.325,2.325,0,0,0,14.789,0Zm0,15.114V4.65a2.325,2.325,0,0,0-2.325-2.325H5.488A1.163,1.163,0,0,1,6.65,1.163h8.138a1.163,1.163,0,0,1,1.163,1.163V13.951A1.163,1.163,0,0,1,14.789,15.114ZM3.163,4.65A1.163,1.163,0,0,1,4.325,3.488h8.138A1.163,1.163,0,0,1,13.626,4.65V16.277a1.163,1.163,0,0,1-1.163,1.163H4.325a1.163,1.163,0,0,1-1.163-1.163Z" transform="translate(-2)" fill="#3684b1"/>
</svg>
