<svg xmlns="http://www.w3.org/2000/svg" width="32.001" height="24.073" viewBox="0 0 32.001 24.073">
  <path id="Trazado_264" data-name="Trazado 264" d="M3,5.006A1.838,1.838,0,0,1,4.6,3H33.4A1.838,1.838,0,0,1,35,5.006a1.838,1.838,0,0,1-1.6,2.006H4.6A1.838,1.838,0,0,1,3,5.006ZM3,15.037a1.838,1.838,0,0,1,1.6-2.006H33.4A1.838,1.838,0,0,1,35,15.037a1.838,1.838,0,0,1-1.6,2.006H4.6A1.838,1.838,0,0,1,3,15.037ZM3,25.067a1.838,1.838,0,0,1,1.6-2.006h16a1.838,1.838,0,0,1,1.6,2.006,1.838,1.838,0,0,1-1.6,2.006H4.6A1.838,1.838,0,0,1,3,25.067Z" transform="translate(-3 -3)"/>
</svg>
