<svg xmlns="http://www.w3.org/2000/svg" width="77.251" height="60.994" viewBox="0 0 77.251 60.994">
  <defs>
    <style>
      .cls-1 {
        fill: #ddd;
      }
    </style>
  </defs>
  <g id="cloud-computing" transform="translate(0 -53.873)">
    <g id="Grupo_3209" data-name="Grupo 3209" transform="translate(0 53.873)">
      <g id="Grupo_3208" data-name="Grupo 3208">
        <path id="Trazado_1727" data-name="Trazado 1727" class="cls-1" d="M61.253,75.183a21.6,21.6,0,0,0-42.738-4.142h-.207a18.308,18.308,0,1,0,0,36.615H31.094a1.647,1.647,0,1,0,0-3.295H18.308a15.013,15.013,0,1,1,0-30.026c.441,0,.907.024,1.426.072A1.649,1.649,0,0,0,21.52,72.99a18.3,18.3,0,0,1,36.44,2.493c0,.364-.027.738-.056,1.135l-.012.169A1.648,1.648,0,0,0,59.7,78.542a13.139,13.139,0,0,1,1.314-.066,12.942,12.942,0,1,1,0,25.884H47.569a1.647,1.647,0,1,0,0,3.295H61.014a16.237,16.237,0,0,0,.239-32.472Z" transform="translate(0 -53.873)"/>
      </g>
    </g>
    <g id="Grupo_3211" data-name="Grupo 3211" transform="translate(25.912 61.616)">
      <g id="Grupo_3210" data-name="Grupo 3210" transform="translate(0 0)">
        <path id="Trazado_1728" data-name="Trazado 1728" class="cls-1" d="M185.472,105.192a13.9,13.9,0,0,0-13.717,11.975,1.648,1.648,0,0,0,1.41,1.855,1.67,1.67,0,0,0,.225.015,1.647,1.647,0,0,0,1.63-1.425,10.589,10.589,0,0,1,10.453-9.126,1.647,1.647,0,0,0,0-3.295Z" transform="translate(-171.74 -105.192)"/>
      </g>
    </g>
    <g id="Grupo_3213" data-name="Grupo 3213" transform="translate(30.976 87.989)">
      <g id="Grupo_3212" data-name="Grupo 3212">
        <path id="Trazado_1729" data-name="Trazado 1729" class="cls-1" d="M221.463,286.028l-5.993-5.353a2.719,2.719,0,0,0-3.625,0l-5.993,5.354a1.648,1.648,0,1,0,2.2,2.457l3.963-3.54v20.268a1.647,1.647,0,0,0,3.295,0V284.945l3.963,3.54a1.647,1.647,0,1,0,2.195-2.457Z" transform="translate(-205.302 -279.982)"/>
      </g>
    </g>
  </g>
</svg>
