<svg id="calendar-event" xmlns="http://www.w3.org/2000/svg" width="20" height="20" viewBox="0 0 20 20">
  <path id="Trazado_215" data-name="Trazado 215" d="M11,6.625A.625.625,0,0,1,11.625,6h1.25a.625.625,0,0,1,.625.625v1.25a.625.625,0,0,1-.625.625h-1.25A.625.625,0,0,1,11,7.875Z" transform="translate(2.75 1.5)" fill="#747474"/>
  <path id="Trazado_216" data-name="Trazado 216" d="M4.375,0A.625.625,0,0,1,5,.625V1.25H15V.625a.625.625,0,0,1,1.25,0V1.25H17.5A2.5,2.5,0,0,1,20,3.75V17.5A2.5,2.5,0,0,1,17.5,20H2.5A2.5,2.5,0,0,1,0,17.5V3.75a2.5,2.5,0,0,1,2.5-2.5H3.75V.625A.625.625,0,0,1,4.375,0ZM1.25,5V17.5A1.25,1.25,0,0,0,2.5,18.75h15a1.25,1.25,0,0,0,1.25-1.25V5Z" transform="translate(0 0)" fill="#747474"/>
</svg>
