<svg xmlns="http://www.w3.org/2000/svg" width="21.62" height="21.402" viewBox="0 0 21.62 21.402">
  <g id="pencil-square" transform="translate(-1 -0.5)">
    <path id="Trazado_260" data-name="Trazado 260" d="M20.976,2.626a.738.738,0,0,1,0,1.042L19.437,5.208,16.485,2.257,18.024.716a.738.738,0,0,1,1.043,0l1.908,1.908ZM18.393,6.25,15.441,3.3,5.386,13.356a.738.738,0,0,0-.179.289L4.019,17.208a.369.369,0,0,0,.466.466l3.563-1.188a.738.738,0,0,0,.289-.177L18.393,6.252Z" transform="translate(1.428 0)" fill="#747474"/>
    <path id="Trazado_261" data-name="Trazado 261" d="M1,19.449a2.214,2.214,0,0,0,2.214,2.214H19.449a2.214,2.214,0,0,0,2.214-2.214V10.594a.738.738,0,1,0-1.476,0v8.856a.738.738,0,0,1-.738.738H3.214a.738.738,0,0,1-.738-.738V3.214a.738.738,0,0,1,.738-.738h9.594a.738.738,0,0,0,0-1.476H3.214A2.214,2.214,0,0,0,1,3.214Z" transform="translate(0 0.238)" fill="#747474" fill-rule="evenodd"/>
  </g>
</svg>
