<svg xmlns="http://www.w3.org/2000/svg" width="24.727" height="17" viewBox="0 0 24.727 17">
  <g id="eye" transform="translate(0 -2.5)">
    <path id="Trazado_6253" data-name="Trazado 6253" d="M24.727,11S20.091,2.5,12.364,2.5,0,11,0,11s4.636,8.5,12.364,8.5S24.727,11,24.727,11ZM1.813,11A20.3,20.3,0,0,1,4.378,7.843a11.515,11.515,0,0,1,7.985-3.8,11.525,11.525,0,0,1,7.987,3.8A20.3,20.3,0,0,1,22.916,11c-.09.134-.189.283-.3.445a20.38,20.38,0,0,1-2.264,2.712,11.528,11.528,0,0,1-7.987,3.8,11.525,11.525,0,0,1-7.987-3.8A20.3,20.3,0,0,1,1.811,11Z" transform="translate(0 0)" fill="#3684b1"/>
    <path id="Trazado_6254" data-name="Trazado 6254" d="M9.909,6.045a3.864,3.864,0,1,0,3.864,3.864A3.864,3.864,0,0,0,9.909,6.045ZM4.5,9.909a5.409,5.409,0,1,1,5.409,5.409A5.409,5.409,0,0,1,4.5,9.909Z" transform="translate(2.455 1.091)" fill="#3684b1"/>
  </g>
</svg>
