<svg xmlns="http://www.w3.org/2000/svg" width="21.9" height="15.056" viewBox="0 0 21.9 15.056">
  <g id="eye" transform="translate(0 -2.5)">
    <path id="Trazado_6253" data-name="Trazado 6253" d="M21.9,10.028S17.794,2.5,10.95,2.5,0,10.028,0,10.028s4.106,7.528,10.95,7.528S21.9,10.028,21.9,10.028Zm-20.295,0a17.976,17.976,0,0,1,2.272-2.8A10.2,10.2,0,0,1,10.95,3.869a10.207,10.207,0,0,1,7.074,3.363,17.976,17.976,0,0,1,2.272,2.8c-.079.119-.167.25-.267.394a18.05,18.05,0,0,1-2.005,2.4,10.21,10.21,0,0,1-7.074,3.363,10.207,10.207,0,0,1-7.074-3.363,17.977,17.977,0,0,1-2.272-2.8Z" transform="translate(0 0)" fill="#3684b1"/>
    <path id="Trazado_6254" data-name="Trazado 6254" d="M9.291,5.869a3.422,3.422,0,1,0,3.422,3.422A3.422,3.422,0,0,0,9.291,5.869ZM4.5,9.291a4.791,4.791,0,1,1,4.791,4.791A4.791,4.791,0,0,1,4.5,9.291Z" transform="translate(1.659 0.738)" fill="#3684b1"/>
  </g>
</svg>
