<svg xmlns="http://www.w3.org/2000/svg" width="18.239" height="18.236" viewBox="0 0 18.239 18.236">
  <g id="exit" transform="translate(0 18.236) rotate(-90)">
    <path id="Trazado_312" data-name="Trazado 312" d="M13.557,3.161,10.61.213A.76.76,0,0,0,9.535,1.288l2.948,2.948a1.562,1.562,0,0,1,.228.3c-.011,0-.021-.006-.032-.006h0L.76,4.55a.76.76,0,0,0,0,1.52h0l11.914-.024c.021,0,.039-.011.059-.012a1.519,1.519,0,0,1-.254.351L9.532,9.333a.76.76,0,1,0,1.056,1.093l.019-.019,2.948-2.948a3.04,3.04,0,0,0,0-4.3Z" transform="translate(3.791 3.809)" fill="#747474"/>
    <path id="Trazado_313" data-name="Trazado 313" d="M5.32,16.719H3.8a2.28,2.28,0,0,1-2.28-2.28V3.8A2.28,2.28,0,0,1,3.8,1.52H5.32A.76.76,0,0,0,5.32,0H3.8A3.8,3.8,0,0,0,0,3.8V14.439a3.8,3.8,0,0,0,3.8,3.8H5.32a.76.76,0,0,0,0-1.52Z" transform="translate(0)" fill="#747474"/>
  </g>
</svg>
