<svg xmlns="http://www.w3.org/2000/svg" width="34.006" height="45.341" viewBox="0 0 34.006 45.341">
  <g id="Grupo_4716" data-name="Grupo 4716" transform="translate(13749.005 2714.438)">
    <path id="file-earmark-check-fill" d="M22.667,0h-15A5.668,5.668,0,0,0,2,5.668V39.673a5.668,5.668,0,0,0,5.668,5.668h22.67a5.668,5.668,0,0,0,5.668-5.668V13.339a2.833,2.833,0,0,0-.83-2L24.67.83a2.834,2.834,0,0,0-2-.83Zm.587,9.918V4.251l8.5,8.5H26.087a2.834,2.834,0,0,1-2.834-2.834Z" transform="translate(-13751.005 -2714.438)" fill="#fff"/>
    <g id="search-svgrepo-com" transform="translate(-13741.43 -2696.752)">
      <g id="Grupo_4713" data-name="Grupo 4713" transform="translate(0 0)">
        <path id="Trazado_6297" data-name="Trazado 6297" d="M25.691,24.344l-7.465-7.47a10.084,10.084,0,0,0,2.357-6.484A10.292,10.292,0,0,0,0,10.4a10.3,10.3,0,0,0,16.674,7.982l7.492,7.492a1.078,1.078,0,1,0,1.525-1.525ZM2.186,10.4a8.1,8.1,0,0,1,16.2,0,8.1,8.1,0,0,1-16.2,0Z" transform="translate(0 -0.2)" fill="#d8d8d8"/>
      </g>
    </g>
  </g>
</svg>
