<svg xmlns="http://www.w3.org/2000/svg" width="19.202" height="21.945" viewBox="0 0 19.202 21.945">
  <path id="trash3" d="M8.544,1.372h4.115a.686.686,0,0,1,.686.686V3.429H7.858V2.057A.686.686,0,0,1,8.544,1.372Zm6.172,2.057V2.057A2.057,2.057,0,0,0,12.658,0H8.544A2.057,2.057,0,0,0,6.486,2.057V3.429h-4.8a.686.686,0,1,0,0,1.372h.738l1.17,14.621a2.743,2.743,0,0,0,2.735,2.524h8.545a2.743,2.743,0,0,0,2.735-2.524L18.778,4.8h.738a.686.686,0,1,0,0-1.372h-4.8ZM17.4,4.8l-1.16,14.511a1.372,1.372,0,0,1-1.367,1.262H6.329a1.372,1.372,0,0,1-1.367-1.262L3.8,4.8ZM7.132,6.172a.686.686,0,0,1,.724.645l.686,11.658a.686.686,0,1,1-1.369.082L6.486,6.9a.686.686,0,0,1,.645-.727Zm6.937,0a.686.686,0,0,1,.645.727l-.686,11.658a.686.686,0,1,1-1.369-.082l.686-11.658a.686.686,0,0,1,.724-.645Zm-3.469,0a.686.686,0,0,1,.686.686V18.516a.686.686,0,1,1-1.372,0V6.858A.686.686,0,0,1,10.6,6.172Z" transform="translate(-1)" fill="#747474"/>
</svg>
