<svg id="file-earmark-pdf-fill" xmlns="http://www.w3.org/2000/svg" width="16.128" height="21.504" viewBox="0 0 16.128 21.504">
  <path id="Trazado_6196" data-name="Trazado 6196" d="M5.772,14.528a6.923,6.923,0,0,1,.617-.32q-.283.421-.6.814a2.733,2.733,0,0,1-.853.769.357.357,0,0,1-.047.016.379.379,0,0,1-.035-.059.437.437,0,0,1,.054-.484,2.613,2.613,0,0,1,.87-.737Zm3.3-2.214c-.16.034-.319.067-.478.1q.355-.7.672-1.411.319.591.685,1.153c-.292.043-.586.094-.879.153Zm3.394,1.262a5.216,5.216,0,0,1-.585-.551,5.394,5.394,0,0,1,.823.073,1.235,1.235,0,0,1,.7.281.128.128,0,0,1,.035.086.586.586,0,0,1-.081.269.413.413,0,0,1-.126.167.144.144,0,0,1-.093.02A1.343,1.343,0,0,1,12.465,13.576ZM9.475,7.2a8.963,8.963,0,0,1-.269,1.114q-.068-.23-.12-.465a2.779,2.779,0,0,1-.062-1.1.457.457,0,0,1,.263-.38.7.7,0,0,1,.195-.054.8.8,0,0,1,.043.266,3.166,3.166,0,0,1-.051.625Z" transform="translate(-1.037 2.17)" fill="#fff"/>
  <path id="Trazado_6197" data-name="Trazado 6197" d="M4.688,0H11.8a1.344,1.344,0,0,1,.95.394l4.982,4.982a1.344,1.344,0,0,1,.394.95v12.49A2.688,2.688,0,0,1,15.44,21.5H4.688A2.688,2.688,0,0,1,2,18.816V2.688A2.688,2.688,0,0,1,4.688,0ZM12.08,2.016V4.7a1.344,1.344,0,0,0,1.344,1.344h2.688ZM4.91,18.37a1.09,1.09,0,0,0,.589.563,1.065,1.065,0,0,0,.78-.04,3.6,3.6,0,0,0,1.245-1.056,15.184,15.184,0,0,0,1.372-2.029,15.659,15.659,0,0,1,2.684-.546A7.675,7.675,0,0,0,12.8,16.538a2.3,2.3,0,0,0,1.255.56,1.15,1.15,0,0,0,.685-.185,1.387,1.387,0,0,0,.476-.559A1.575,1.575,0,0,0,15.4,15.6a1.134,1.134,0,0,0-.269-.7,2.144,2.144,0,0,0-1.29-.625,7.742,7.742,0,0,0-1.794-.067,14.722,14.722,0,0,1-1.317-2.266,13.128,13.128,0,0,0,.7-2.411,4.2,4.2,0,0,0,.065-.825,1.664,1.664,0,0,0-.171-.723.941.941,0,0,0-.641-.491,1.4,1.4,0,0,0-.808.1A1.451,1.451,0,0,0,9,8.7a3.734,3.734,0,0,0,.062,1.527,9.731,9.731,0,0,0,.578,1.741,26.473,26.473,0,0,1-1.427,2.993,10.3,10.3,0,0,0-1.992.867,3.605,3.605,0,0,0-1.206,1.058A1.444,1.444,0,0,0,4.91,18.37Z" transform="translate(-2 0)" fill="#fff" fill-rule="evenodd"/>
</svg>
