<svg xmlns="http://www.w3.org/2000/svg" width="157" height="119.788" viewBox="0 0 157 119.788">
  <g id="Grupo_4327" data-name="Grupo 4327" transform="translate(-107.674 -73.342)" opacity="0.787">
    <g id="Background_Complete" data-name="Background Complete" transform="translate(107.674 73.342)">
      <g id="Grupo_4289" data-name="Grupo 4289" transform="translate(0 15.945)">
        <g id="Grupo_4273" data-name="Grupo 4273" transform="translate(0 0)">
          <rect id="Rectángulo_2144" data-name="Rectángulo 2144" width="43.986" height="64.768" transform="matrix(0.831, -0.556, 0.556, 0.831, 0, 24.454)" fill="#f5f5f5"/>
        </g>
        <g id="Grupo_4276" data-name="Grupo 4276" transform="translate(35.091 42.122)">
          <g id="Grupo_4274" data-name="Grupo 4274" transform="translate(0 6.542)">
            <path id="Trazado_697" data-name="Trazado 697" d="M233.958,274.242l-.415,2.568-18.175-2.618.415-2.568Z" transform="translate(-215.368 -271.624)" fill="#e0e0e0"/>
          </g>
          <g id="Grupo_4275" data-name="Grupo 4275" transform="translate(6.545)">
            <path id="Trazado_698" data-name="Trazado 698" d="M238.346,251.546l2.608.376-2.892,17.895-2.608-.376Z" transform="translate(-235.454 -251.546)" fill="#e0e0e0"/>
          </g>
        </g>
        <g id="Grupo_4278" data-name="Grupo 4278" transform="translate(39.359 20.437)">
          <g id="Grupo_4277" data-name="Grupo 4277">
            <path id="Trazado_699" data-name="Trazado 699" d="M228.466,184.995" transform="translate(-228.466 -184.995)" fill="none" stroke="#fff" stroke-width="1"/>
          </g>
        </g>
        <g id="Grupo_4280" data-name="Grupo 4280" transform="translate(11.327 19.377)">
          <g id="Grupo_4279" data-name="Grupo 4279">
            <path id="Trazado_700" data-name="Trazado 700" d="M158.9,181.744c.026.039-3.638,2.535-8.183,5.575s-8.252,5.474-8.278,5.434,3.637-2.535,8.183-5.576S158.87,181.705,158.9,181.744Z" transform="translate(-142.436 -181.744)" fill="#e0e0e0"/>
          </g>
        </g>
        <g id="Grupo_4282" data-name="Grupo 4282" transform="translate(13.923 16.002)">
          <g id="Grupo_4281" data-name="Grupo 4281">
            <path id="Trazado_701" data-name="Trazado 701" d="M177.713,171.386c.026.039-6.067,4.16-13.607,9.2s-13.677,9.1-13.7,9.063,6.066-4.159,13.609-9.2S177.687,171.347,177.713,171.386Z" transform="translate(-150.403 -171.386)" fill="#e0e0e0"/>
          </g>
        </g>
        <g id="Grupo_4284" data-name="Grupo 4284" transform="translate(16.618 20.032)">
          <g id="Grupo_4283" data-name="Grupo 4283">
            <path id="Trazado_702" data-name="Trazado 702" d="M185.984,183.752c.026.039-6.067,4.16-13.607,9.2s-13.677,9.1-13.7,9.063,6.066-4.159,13.608-9.2S185.958,183.714,185.984,183.752Z" transform="translate(-158.675 -183.752)" fill="#e0e0e0"/>
          </g>
        </g>
        <g id="Grupo_4286" data-name="Grupo 4286" transform="translate(19.313 24.061)">
          <g id="Grupo_4285" data-name="Grupo 4285">
            <path id="Trazado_703" data-name="Trazado 703" d="M194.255,196.119c.026.039-6.067,4.16-13.607,9.2s-13.677,9.1-13.7,9.063,6.066-4.159,13.608-9.2S194.229,196.08,194.255,196.119Z" transform="translate(-166.946 -196.119)" fill="#e0e0e0"/>
          </g>
        </g>
        <g id="Grupo_4288" data-name="Grupo 4288" transform="translate(22.008 28.091)">
          <g id="Grupo_4287" data-name="Grupo 4287">
            <path id="Trazado_704" data-name="Trazado 704" d="M202.527,208.485c.026.039-6.067,4.16-13.607,9.2s-13.677,9.1-13.7,9.063,6.066-4.159,13.609-9.2S202.5,208.447,202.527,208.485Z" transform="translate(-175.217 -208.485)" fill="#e0e0e0"/>
          </g>
        </g>
      </g>
      <g id="Grupo_4306" data-name="Grupo 4306" transform="translate(84.43 29.093)">
        <g id="Grupo_4290" data-name="Grupo 4290" transform="translate(0 0)">
          <rect id="Rectángulo_2145" data-name="Rectángulo 2145" width="43.986" height="64.768" transform="matrix(-0.831, -0.556, 0.556, -0.831, 36.561, 78.29)" fill="#f5f5f5"/>
        </g>
        <g id="Grupo_4293" data-name="Grupo 4293" transform="translate(18.888 42.122)">
          <g id="Grupo_4291" data-name="Grupo 4291" transform="translate(0 6.542)">
            <path id="Trazado_705" data-name="Trazado 705" d="M424.755,314.595l.415,2.568,18.175-2.618-.415-2.568Z" transform="translate(-424.755 -311.976)" fill="#e0e0e0"/>
          </g>
          <g id="Grupo_4292" data-name="Grupo 4292" transform="translate(6.545)">
            <path id="Trazado_706" data-name="Trazado 706" d="M447.449,291.9l-2.608.376,2.892,17.895,2.608-.376Z" transform="translate(-444.841 -291.899)" fill="#e0e0e0"/>
          </g>
        </g>
        <g id="Grupo_4295" data-name="Grupo 4295" transform="translate(33.21 20.437)">
          <g id="Grupo_4294" data-name="Grupo 4294">
            <path id="Trazado_707" data-name="Trazado 707" d="M468.708,225.348" transform="translate(-468.708 -225.348)" fill="none" stroke="#fff" stroke-width="1"/>
          </g>
        </g>
        <g id="Grupo_4297" data-name="Grupo 4297" transform="translate(44.782 19.377)">
          <g id="Grupo_4296" data-name="Grupo 4296">
            <path id="Trazado_708" data-name="Trazado 708" d="M504.222,222.1c-.026.039,3.638,2.535,8.183,5.575s8.252,5.474,8.278,5.435-3.637-2.535-8.183-5.576S504.248,222.058,504.222,222.1Z" transform="translate(-504.222 -222.097)" fill="#e0e0e0"/>
          </g>
        </g>
        <g id="Grupo_4299" data-name="Grupo 4299" transform="translate(31.337 16.002)">
          <g id="Grupo_4298" data-name="Grupo 4298">
            <path id="Trazado_709" data-name="Trazado 709" d="M462.959,211.738c-.026.039,6.067,4.16,13.607,9.2s13.677,9.1,13.7,9.063-6.066-4.159-13.608-9.2S462.985,211.7,462.959,211.738Z" transform="translate(-462.959 -211.738)" fill="#e0e0e0"/>
          </g>
        </g>
        <g id="Grupo_4301" data-name="Grupo 4301" transform="translate(28.642 20.032)">
          <g id="Grupo_4300" data-name="Grupo 4300">
            <path id="Trazado_710" data-name="Trazado 710" d="M454.687,224.105c-.026.039,6.067,4.16,13.607,9.2s13.677,9.1,13.7,9.063-6.065-4.159-13.608-9.2S454.713,224.066,454.687,224.105Z" transform="translate(-454.687 -224.105)" fill="#e0e0e0"/>
          </g>
        </g>
        <g id="Grupo_4303" data-name="Grupo 4303" transform="translate(25.946 24.061)">
          <g id="Grupo_4302" data-name="Grupo 4302">
            <path id="Trazado_711" data-name="Trazado 711" d="M446.416,236.471c-.026.039,6.067,4.16,13.607,9.2s13.677,9.1,13.7,9.063-6.066-4.159-13.608-9.2S446.442,236.433,446.416,236.471Z" transform="translate(-446.416 -236.471)" fill="#e0e0e0"/>
          </g>
        </g>
        <g id="Grupo_4305" data-name="Grupo 4305" transform="translate(23.251 28.091)">
          <g id="Grupo_4304" data-name="Grupo 4304">
            <path id="Trazado_712" data-name="Trazado 712" d="M438.145,248.838c-.026.039,6.067,4.16,13.607,9.2s13.677,9.1,13.7,9.063-6.066-4.159-13.608-9.2S438.171,248.8,438.145,248.838Z" transform="translate(-438.145 -248.838)" fill="#e0e0e0"/>
          </g>
        </g>
      </g>
      <g id="Grupo_4323" data-name="Grupo 4323" transform="translate(50.353 0)">
        <g id="Grupo_4307" data-name="Grupo 4307" transform="translate(0)">
          <rect id="Rectángulo_2146" data-name="Rectángulo 2146" width="37.993" height="55.944" transform="matrix(0.882, 0.472, -0.472, 0.882, 26.383, 0)" fill="#f5f5f5"/>
        </g>
        <g id="Grupo_4310" data-name="Grupo 4310" transform="translate(16.214 36.902)">
          <g id="Grupo_4308" data-name="Grupo 4308" transform="translate(4.033)">
            <path id="Trazado_713" data-name="Trazado 713" d="M331.862,201.509l-2.126.728-5.4-14.915,2.126-.728Z" transform="translate(-324.341 -186.594)" fill="#e0e0e0"/>
          </g>
          <g id="Grupo_4309" data-name="Grupo 4309" transform="translate(0 4.215)">
            <path id="Trazado_714" data-name="Trazado 714" d="M326.777,199.529l.774,2.14-14.813,5.073-.774-2.14Z" transform="translate(-311.964 -199.529)" fill="#e0e0e0"/>
          </g>
        </g>
        <g id="Grupo_4312" data-name="Grupo 4312" transform="translate(45.45 28.36)">
          <g id="Grupo_4311" data-name="Grupo 4311">
            <path id="Trazado_715" data-name="Trazado 715" d="M401.689,160.379" transform="translate(-401.689 -160.379)" fill="none" stroke="#fff" stroke-width="1"/>
          </g>
        </g>
        <g id="Grupo_4314" data-name="Grupo 4314" transform="translate(26.468 11.043)">
          <g id="Grupo_4313" data-name="Grupo 4313">
            <path id="Trazado_716" data-name="Trazado 716" d="M358.517,115.3c-.026.049-3.424-1.717-7.589-3.944s-7.521-4.073-7.495-4.122,3.424,1.717,7.59,3.945S358.543,115.253,358.517,115.3Z" transform="translate(-343.434 -107.234)" fill="#e0e0e0"/>
          </g>
        </g>
        <g id="Grupo_4316" data-name="Grupo 4316" transform="translate(24.566 14.601)">
          <g id="Grupo_4315" data-name="Grupo 4315">
            <path id="Trazado_717" data-name="Trazado 717" d="M362.622,131.535c-.026.049-5.65-2.908-12.559-6.6S337.57,118.2,337.6,118.152s5.649,2.907,12.56,6.6S362.648,131.486,362.622,131.535Z" transform="translate(-337.597 -118.151)" fill="#e0e0e0"/>
          </g>
        </g>
        <g id="Grupo_4318" data-name="Grupo 4318" transform="translate(22.591 18.293)">
          <g id="Grupo_4317" data-name="Grupo 4317">
            <path id="Trazado_718" data-name="Trazado 718" d="M356.561,142.867c-.026.049-5.65-2.908-12.56-6.6s-12.492-6.732-12.465-6.781,5.649,2.907,12.561,6.6S356.587,142.818,356.561,142.867Z" transform="translate(-331.536 -129.482)" fill="#e0e0e0"/>
          </g>
        </g>
        <g id="Grupo_4320" data-name="Grupo 4320" transform="translate(20.616 21.985)">
          <g id="Grupo_4319" data-name="Grupo 4319">
            <path id="Trazado_719" data-name="Trazado 719" d="M350.5,154.2c-.026.049-5.65-2.908-12.559-6.6s-12.492-6.732-12.465-6.781,5.648,2.907,12.561,6.6S350.527,154.15,350.5,154.2Z" transform="translate(-325.476 -140.814)" fill="#e0e0e0"/>
          </g>
        </g>
        <g id="Grupo_4322" data-name="Grupo 4322" transform="translate(18.641 25.678)">
          <g id="Grupo_4321" data-name="Grupo 4321">
            <path id="Trazado_720" data-name="Trazado 720" d="M344.44,165.53c-.026.049-5.65-2.908-12.559-6.6s-12.492-6.732-12.466-6.781,5.649,2.907,12.561,6.6S344.466,165.482,344.44,165.53Z" transform="translate(-319.415 -152.146)" fill="#e0e0e0"/>
          </g>
        </g>
      </g>
    </g>
    <g id="Folder" transform="translate(128.822 110.779)">
      <g id="Grupo_4326" data-name="Grupo 4326" transform="translate(0)">
        <g id="Grupo_4324" data-name="Grupo 4324" transform="translate(28.151 11.09)">
          <path id="Trazado_721" data-name="Trazado 721" d="M272,226.269l-11.522,59.238-1.508,7.755,76.92-.379c3.452-.017,6.511-3.082,7.622-7.636l13.64-55.927c.843-3.457-1.007-7.053-3.627-7.05l-77.852.082C273.951,222.354,272.448,223.958,272,226.269Z" transform="translate(-258.968 -222.27)" fill="#608c46"/>
        </g>
        <path id="Trazado_722" data-name="Trazado 722" d="M270.267,258.549l-8.144-65.628a5.165,5.165,0,0,0-5-4.687l-17.859.058a4.867,4.867,0,0,0-3.528,1.564l-8.48,9.014-49.667.259a5.283,5.283,0,0,0-4.965,6.114l7.561,60.657a5.166,5.166,0,0,0,5,4.683l86.559-.171c9.641.2,10.561-2.647,10.561-2.647C271.252,270.216,270.268,258.557,270.267,258.549Z" transform="translate(-172.575 -188.235)" fill="#8fc870"/>
      </g>
    </g>
  </g>
</svg>
