<svg xmlns="http://www.w3.org/2000/svg" width="19.645" height="26.193" viewBox="0 0 19.645 26.193">
  <g id="file-earmark-pdf-fill" transform="translate(0)">
    <path id="Trazado_6196" data-name="Trazado 6196" d="M5.984,16.32a8.433,8.433,0,0,1,.751-.39q-.344.513-.737.992a3.329,3.329,0,0,1-1.04.936.435.435,0,0,1-.057.02.462.462,0,0,1-.043-.072.533.533,0,0,1,.065-.589,3.183,3.183,0,0,1,1.059-.9ZM10,13.624c-.195.041-.388.082-.583.128q.433-.848.819-1.719.388.719.835,1.4c-.355.052-.714.115-1.071.187Zm4.134,1.537a6.353,6.353,0,0,1-.712-.671,6.571,6.571,0,0,1,1,.088,1.5,1.5,0,0,1,.848.342.156.156,0,0,1,.043.1.714.714,0,0,1-.1.327.5.5,0,0,1-.154.2.175.175,0,0,1-.113.025A1.636,1.636,0,0,1,14.137,15.161Zm-3.642-7.77a10.917,10.917,0,0,1-.327,1.357q-.083-.28-.146-.566a3.385,3.385,0,0,1-.075-1.346.557.557,0,0,1,.321-.463.846.846,0,0,1,.237-.065.973.973,0,0,1,.052.324,3.856,3.856,0,0,1-.062.761Z" transform="translate(-0.217 4.019)" fill="#3684b1"/>
    <path id="Trazado_6197" data-name="Trazado 6197" d="M5.274,0h8.665A1.637,1.637,0,0,1,15.1.479l6.069,6.069a1.637,1.637,0,0,1,.48,1.157V22.919a3.274,3.274,0,0,1-3.274,3.274H5.274A3.274,3.274,0,0,1,2,22.919V3.274A3.274,3.274,0,0,1,5.274,0Zm9,2.456V5.73a1.637,1.637,0,0,0,1.637,1.637h3.274ZM5.544,22.375a1.327,1.327,0,0,0,.717.686,1.3,1.3,0,0,0,.95-.049,4.38,4.38,0,0,0,1.516-1.287A18.494,18.494,0,0,0,10.4,19.254a19.074,19.074,0,0,1,3.269-.665,9.348,9.348,0,0,0,1.49,1.555,2.8,2.8,0,0,0,1.529.683,1.4,1.4,0,0,0,.835-.226,1.689,1.689,0,0,0,.58-.681A1.918,1.918,0,0,0,18.327,19,1.382,1.382,0,0,0,18,18.15a2.612,2.612,0,0,0-1.572-.761,9.43,9.43,0,0,0-2.185-.082,17.932,17.932,0,0,1-1.6-2.76,15.99,15.99,0,0,0,.851-2.937,5.111,5.111,0,0,0,.079-1.005,2.027,2.027,0,0,0-.208-.881,1.146,1.146,0,0,0-.781-.6,1.7,1.7,0,0,0-.984.126A1.767,1.767,0,0,0,10.529,10.6a4.548,4.548,0,0,0,.075,1.86,11.853,11.853,0,0,0,.7,2.12A32.245,32.245,0,0,1,9.57,18.226a12.543,12.543,0,0,0-2.426,1.056A4.391,4.391,0,0,0,5.675,20.57a1.758,1.758,0,0,0-.131,1.806Z" transform="translate(-2 0)" fill="#3684b1" fill-rule="evenodd"/>
  </g>
</svg>
